<mxfile host="65bd71144e">
    <diagram id="mWJJbs33YS_XODCqyd8N" name="Page-1">
        <mxGraphModel dx="829" dy="619" grid="1" gridSize="10" guides="1" tooltips="1" connect="1" arrows="1" fold="1" page="1" pageScale="1" pageWidth="850" pageHeight="1100" math="0" shadow="0">
            <root>
                <mxCell id="0"/>
                <mxCell id="1" parent="0"/>
                <mxCell id="58" style="edgeStyle=none;html=1;exitX=1;exitY=0.5;exitDx=0;exitDy=0;entryX=0;entryY=0.5;entryDx=0;entryDy=0;" edge="1" parent="1" source="28" target="34">
                    <mxGeometry relative="1" as="geometry"/>
                </mxCell>
                <mxCell id="59" style="edgeStyle=none;html=1;exitX=1;exitY=0.5;exitDx=0;exitDy=0;entryX=0;entryY=0.5;entryDx=0;entryDy=0;" edge="1" parent="1" source="28" target="35">
                    <mxGeometry relative="1" as="geometry"/>
                </mxCell>
                <mxCell id="28" value="wheel" style="rounded=1;whiteSpace=wrap;html=1;shadow=1;fontFamily=Lucida Console;fillColor=#f8cecc;strokeColor=#b85450;" parent="1" vertex="1">
                    <mxGeometry width="160" height="60" as="geometry"/>
                </mxCell>
                <mxCell id="60" style="edgeStyle=none;html=1;exitX=1;exitY=0.5;exitDx=0;exitDy=0;entryX=0;entryY=0.5;entryDx=0;entryDy=0;" edge="1" parent="1" source="33" target="38">
                    <mxGeometry relative="1" as="geometry"/>
                </mxCell>
                <mxCell id="61" style="edgeStyle=none;html=1;exitX=1;exitY=0.5;exitDx=0;exitDy=0;entryX=0;entryY=0.5;entryDx=0;entryDy=0;" edge="1" parent="1" source="33" target="40">
                    <mxGeometry relative="1" as="geometry"/>
                </mxCell>
                <mxCell id="33" value="bicycle" style="rounded=1;whiteSpace=wrap;html=1;shadow=1;fontFamily=Lucida Console;fillColor=#d5e8d4;strokeColor=#82b366;" parent="1" vertex="1">
                    <mxGeometry y="80" width="160" height="60" as="geometry"/>
                </mxCell>
                <mxCell id="34" value="radius: float" style="rounded=0;whiteSpace=wrap;html=1;shadow=1;fontFamily=Lucida Console;fillColor=#f5f5f5;fontColor=#333333;strokeColor=#666666;" parent="1" vertex="1">
                    <mxGeometry x="200" width="160" height="20" as="geometry"/>
                </mxCell>
                <mxCell id="35" value="width: float" style="rounded=0;whiteSpace=wrap;html=1;shadow=1;fontFamily=Lucida Console;fillColor=#f5f5f5;fontColor=#333333;strokeColor=#666666;" parent="1" vertex="1">
                    <mxGeometry x="200" y="40" width="160" height="20" as="geometry"/>
                </mxCell>
                <mxCell id="38" value="front: wheel" style="rounded=0;whiteSpace=wrap;html=1;shadow=1;fontFamily=Lucida Console;fillColor=#f8cecc;strokeColor=#b85450;" parent="1" vertex="1">
                    <mxGeometry x="200" y="80" width="160" height="20" as="geometry"/>
                </mxCell>
                <mxCell id="40" value="back: wheel" style="rounded=0;whiteSpace=wrap;html=1;shadow=1;fontFamily=Lucida Console;fillColor=#f8cecc;strokeColor=#b85450;" parent="1" vertex="1">
                    <mxGeometry x="200" y="120" width="160" height="20" as="geometry"/>
                </mxCell>
                <mxCell id="62" style="edgeStyle=none;html=1;exitX=1;exitY=0.5;exitDx=0;exitDy=0;entryX=0;entryY=0.5;entryDx=0;entryDy=0;" edge="1" parent="1" source="47" target="48">
                    <mxGeometry relative="1" as="geometry"/>
                </mxCell>
                <mxCell id="63" style="edgeStyle=none;html=1;exitX=1;exitY=0.5;exitDx=0;exitDy=0;entryX=0;entryY=0.5;entryDx=0;entryDy=0;" edge="1" parent="1" source="47" target="50">
                    <mxGeometry relative="1" as="geometry"/>
                </mxCell>
                <mxCell id="47" value="person" style="rounded=1;whiteSpace=wrap;html=1;shadow=1;fontFamily=Lucida Console;fillColor=#dae8fc;strokeColor=#6c8ebf;" parent="1" vertex="1">
                    <mxGeometry y="160" width="160" height="60" as="geometry"/>
                </mxCell>
                <mxCell id="48" value="name: string" style="rounded=0;whiteSpace=wrap;html=1;shadow=1;fontFamily=Lucida Console;fillColor=#f5f5f5;fontColor=#333333;strokeColor=#666666;" parent="1" vertex="1">
                    <mxGeometry x="200" y="160" width="160" height="20" as="geometry"/>
                </mxCell>
                <mxCell id="50" value="bicycles: bicycle[]" style="rounded=0;whiteSpace=wrap;html=1;shadow=1;fontFamily=Lucida Console;fillColor=#d5e8d4;strokeColor=#82b366;" parent="1" vertex="1">
                    <mxGeometry x="200" y="200" width="160" height="20" as="geometry"/>
                </mxCell>
            </root>
        </mxGraphModel>
    </diagram>
</mxfile>